# xmcd
#
# Track frame offsets:
#	150
#	16334
#	28305
#	43319
#	61286
#	74071
#	88082
#	106867
#	124232
#	147095
#	163526
#
# Disc length: 2398 seconds
#
# Revision: 1
# Processed by: cddbd v1.5.2PL0 Copyright (c) Steve Scherf et al.
# Submitted via: audiograbber 1.83.01
#
DISCID=9e095c0b
DTITLE=Bud Tyndle - When You Smile
DYEAR=2004
DGENRE=Country
TTITLE0=Honky Tonkin' Redneck S.O.B.
TTITLE1=Feelin' Great
TTITLE2=Love 2 B N Love
TTITLE3=Take Time to Make Time for Me
TTITLE4=Harmonica Blues
TTITLE5=When You Smile
TTITLE6=Love is Gonna Steal You Blind
TTITLE7=Budman Boogie
TTITLE8=Don't We Have A Right
TTITLE9=Blue Rock
TTITLE10=The Ride
EXTD=
EXTT0=
EXTT1=
EXTT2=
EXTT3=
EXTT4=
EXTT5=
EXTT6=
EXTT7=
EXTT8=
EXTT9=
EXTT10=
PLAYORDER=
